<svg xmlns="http://www.w3.org/2000/svg" viewBox="0 0 32 32">
  <rect width="32" height="32" rx="8" fill="#f97316"/>
  <g transform="translate(5, 5)" stroke="white" stroke-width="1.8" stroke-linecap="round" stroke-linejoin="round" fill="none">
    <path d="M19 14.5V7.5a1.8 1.8 0 0 0-.9-1.56L12 2.5a1.8 1.8 0 0 0-1.8 0L4 5.94A1.8 1.8 0 0 0 3 7.5v7a1.8 1.8 0 0 0 .9 1.56L10.2 19.5a1.8 1.8 0 0 0 1.8 0l6.1-3.44A1.8 1.8 0 0 0 19 14.5z"/>
    <polyline points="3.2 6.3 11 10.8 18.8 6.3"/>
    <line x1="11" y1="20" x2="11" y2="10.8"/>
  </g>
</svg>
